<svg xmlns="http://www.w3.org/2000/svg" width="116.00049" height="30.00415" viewBox="0 0 116.00049 30.00415">
  <defs>
    <style>
      .cls-1 {
        isolation: isolate;
      }

      .cls-2 {
        fill: #33c996;
        fill-rule: evenodd;
      }
    </style>
  </defs>
  <title>xtender-logo-green</title>
  <g id="XTENDER_LOGO" data-name="XTENDER LOGO" class="cls-1">
    <path class="cls-2" d="M39.24438,12.24042h9.94592V10.69556H37.723V23.70062H49.20935V22.15546h-9.965Zm9.43372,5.64191v-1.551H41.86145v1.551ZM22.36023,12.24042h5.24872V23.70062h1.54016V12.24042h5.24872V10.69556H22.36023Zm42.17389,9.11694L54.03369,10.89331a1.43541,1.43541,0,0,0-.38934-.29559.77089.77089,0,0,0-.33026-.074.68193.68193,0,0,0-.57092.23773,1.16828,1.16828,0,0,0-.22766.77374V23.70062h1.42621V12.91394L64.40723,23.48669a1.11281,1.11281,0,0,0,.79285.38574.66217.66217,0,0,0,.53638-.23242,1.16344,1.16344,0,0,0,.22418-.77869V10.581H64.53412Zm16.83435-8.89954a5.8588,5.8588,0,0,0-1.98322-1.29712,6.78253,6.78253,0,0,0-2.53809-.46515H69.278V23.70062h7.56915a6.231,6.231,0,0,0,2.52533-.50787A6.08579,6.08579,0,0,0,81.36035,21.803a6.39364,6.39364,0,0,0,1.30707-2.10114,7.28068,7.28068,0,0,0,.4743-2.64667,6.92731,6.92731,0,0,0-.472-2.59528A5.9891,5.9891,0,0,0,81.36847,12.45782Zm-.11981,6.6853a4.64075,4.64075,0,0,1-4.40149,3.01233H70.79962v-9.915h6.04755a4.82843,4.82843,0,0,1,1.89032.36859,4.53772,4.53772,0,0,1,2.5105,2.5946,5.40818,5.40818,0,0,1,.35339,1.96582A5.48209,5.48209,0,0,1,81.24866,19.14313Zm6.713-6.90271h9.94592V10.69556H86.44037V23.70062H97.92682V22.15546H87.96167Zm24.13959,7.50842.63013-.2406a3.74652,3.74652,0,0,0,1.88849-1.51715,4.89367,4.89367,0,0,0,.68152-2.67413,5.68039,5.68039,0,0,0-.31506-1.94946,3.99909,3.99909,0,0,0-.88989-1.43756,3.9128,3.9128,0,0,0-1.42151-.90936,5.5193,5.5193,0,0,0-1.95667-.325h-9.48938V23.70062h1.5213V12.24042h7.96808a3.14945,3.14945,0,0,1,2.24951.77893,3.08641,3.08641,0,0,1,.83154,2.33539,3.37047,3.37047,0,0,1-.78357,2.37347,2.99517,2.99517,0,0,1-2.29749.856h-5.32452v1.25812h4.9281l3.499,3.85834h2.17926Zm-14.68335-1.7749V16.423H90.60144v1.5509ZM26.88043,1.11835l-1.11-1.12109L13.44,12.44934,1.10956-.00275-.00037,1.11835,13.44,14.69147Zm-26.8808,27.762,1.10992,1.121L13.44,17.54938l12.33044,12.452,1.11-1.121L13.44,15.30719Z" transform="translate(0.00037 0.00275)"/>
  </g>
</svg>
